<?xml version="1.0" encoding="UTF-8" standalone="no"?>
<!DOCTYPE svg PUBLIC "-//W3C//DTD SVG 1.1//EN"
 "http://www.w3.org/Graphics/SVG/1.1/DTD/svg11.dtd">
<!-- Generated by graphviz version 7.1.0 (0)
 -->
<!-- Pages: 1 -->
<svg width="1177pt" height="1198pt"
 viewBox="72.00 72.00 1104.50 1126.00" xmlns="http://www.w3.org/2000/svg" xmlns:xlink="http://www.w3.org/1999/xlink">
<g id="graph0" class="graph" transform="scale(1 1) rotate(0) translate(76 1122)">
<polygon fill="white" stroke="none" points="-4,4 -4,-1050 1028.5,-1050 1028.5,4 -4,4"/>
<text text-anchor="start" x="353.25" y="-1023.8" font-family="monospace" font-size="24.00">vichan</text>
<text text-anchor="start" x="439.25" y="-1023.8" font-family="sans-serif" font-size="24.00"> Timeline by ★コピペ</text>
<!-- fourchan -->
<g id="node1" class="node">
<title>fourchan</title>
<path fill="lightgrey" stroke="black" d="M505,-966.5C505,-966.5 691,-966.5 691,-966.5 697,-966.5 703,-972.5 703,-978.5 703,-978.5 703,-999.5 703,-999.5 703,-1005.5 697,-1011.5 691,-1011.5 691,-1011.5 505,-1011.5 505,-1011.5 499,-1011.5 493,-1005.5 493,-999.5 493,-999.5 493,-978.5 493,-978.5 493,-972.5 499,-966.5 505,-966.5"/>
<text text-anchor="start" x="501" y="-997.3" font-family="sans-serif" font-size="14.00">Proprietary 4chan.org software</text>
<text text-anchor="start" x="566.5" y="-987.3" font-family="sans-serif" font-weight="bold" font-size="9.00">(@moot </text>
<text text-anchor="start" x="603.5" y="-987.3" font-family="sans-serif" font-weight="bold" font-style="italic" font-size="9.00">et al.</text>
<text text-anchor="start" x="625.5" y="-987.3" font-family="sans-serif" font-weight="bold" font-size="9.00">)</text>
<text text-anchor="start" x="577" y="-974.3" font-family="sans-serif" font-size="14.00">2003–</text>
</g>
<!-- tb -->
<g id="node2" class="node">
<title>tb</title>
<path fill="lightgrey" stroke="black" d="M519,-749.5C519,-749.5 677,-749.5 677,-749.5 683,-749.5 689,-755.5 689,-761.5 689,-761.5 689,-827.5 689,-827.5 689,-833.5 683,-839.5 677,-839.5 677,-839.5 519,-839.5 519,-839.5 513,-839.5 507,-833.5 507,-827.5 507,-827.5 507,-761.5 507,-761.5 507,-755.5 513,-749.5 519,-749.5"/>
<text text-anchor="start" x="515" y="-825.3" font-family="sans-serif" font-size="14.00">Proprietary 4chon.net fork</text>
<text text-anchor="start" x="556.5" y="-815.3" font-family="sans-serif" font-weight="bold" font-size="9.00">(@savetheinternet)</text>
<text text-anchor="start" x="560.5" y="-802.3" font-family="sans-serif" font-size="14.00">2009–2014</text>
<polyline fill="none" stroke="black" points="507,-794.5 689,-794.5"/>
<text text-anchor="start" x="566" y="-780.3" font-family="sans-serif" font-size="14.00">Tinyboard</text>
<text text-anchor="start" x="556.5" y="-770.3" font-family="sans-serif" font-weight="bold" font-size="9.00">(@savetheinternet)</text>
<text text-anchor="start" x="560.5" y="-757.3" font-family="sans-serif" font-size="14.00">2010–2014</text>
</g>
<!-- fourchan&#45;&gt;tb -->
<g id="edge1" class="edge">
<title>fourchan&#45;&gt;tb</title>
<path fill="none" stroke="darkred" stroke-width="2" stroke-dasharray="1,5" d="M598,-966.66C598,-939.28 598,-890.74 598,-852.32"/>
<polygon fill="darkred" stroke="darkred" stroke-width="2" points="601.5,-852.49 598,-842.49 594.5,-852.49 601.5,-852.49"/>
<text text-anchor="start" x="598" y="-896.6" font-family="sans-serif" font-size="8.00"> inspired </text>
</g>
<!-- fourchan&#45;&gt;tb -->
<!-- vichan -->
<g id="node3" class="node">
<title>vichan</title>
<path fill="gold" stroke="gold" d="M504,-540.5C504,-540.5 692,-540.5 692,-540.5 698,-540.5 704,-546.5 704,-552.5 704,-552.5 704,-627.5 704,-627.5 704,-633.5 698,-639.5 692,-639.5 692,-639.5 504,-639.5 504,-639.5 498,-639.5 492,-633.5 492,-627.5 492,-627.5 492,-552.5 492,-552.5 492,-546.5 498,-540.5 504,-540.5"/>
<text text-anchor="start" x="577" y="-625.3" font-family="sans-serif" font-size="14.00">vichan</text>
<text text-anchor="start" x="578.5" y="-615.3" font-family="sans-serif" font-weight="bold" font-size="9.00">(@czaks)</text>
<text text-anchor="start" x="577" y="-602.3" font-family="sans-serif" font-size="14.00">2012–</text>
<polyline fill="none" stroke="gold" points="492,-594.5 704,-594.5"/>
<text text-anchor="start" x="500" y="-580.3" font-family="sans-serif" font-size="14.00">Production vichan.net software</text>
<text text-anchor="start" x="533" y="-570.3" font-family="sans-serif" font-weight="bold" font-size="9.00">(Polish&#45;language imageboard)</text>
<text text-anchor="start" x="578.5" y="-561.3" font-family="sans-serif" font-weight="bold" font-size="9.00">(@czaks)</text>
<text text-anchor="start" x="577" y="-548.3" font-family="sans-serif" font-size="14.00">2012–</text>
</g>
<!-- tb&#45;&gt;vichan -->
<g id="edge6" class="edge">
<title>tb&#45;&gt;vichan</title>
<path fill="none" stroke="black" d="M586.64,-749.56C584.21,-720.66 583.85,-682.46 585.56,-650.8"/>
<polygon fill="black" stroke="black" points="589.04,-651.17 586.19,-640.97 582.06,-650.73 589.04,-651.17"/>
</g>
<!-- tb&#45;&gt;vichan -->
<!-- ponychan -->
<g id="node4" class="node">
<title>ponychan</title>
<path fill="lightgrey" stroke="black" d="M833.5,-560.5C833.5,-560.5 1012.5,-560.5 1012.5,-560.5 1018.5,-560.5 1024.5,-566.5 1024.5,-572.5 1024.5,-572.5 1024.5,-607.5 1024.5,-607.5 1024.5,-613.5 1018.5,-619.5 1012.5,-619.5 1012.5,-619.5 833.5,-619.5 833.5,-619.5 827.5,-619.5 821.5,-613.5 821.5,-607.5 821.5,-607.5 821.5,-572.5 821.5,-572.5 821.5,-566.5 827.5,-560.5 833.5,-560.5"/>
<text text-anchor="start" x="829.5" y="-605.3" font-family="sans-serif" font-size="14.00">Proprietary ponychan.net fork</text>
<text text-anchor="start" x="913" y="-595.3" font-family="sans-serif" font-weight="bold" font-size="9.00">(???)</text>
<text text-anchor="start" x="842.5" y="-582.3" font-family="sans-serif" font-size="14.00">2012–2015 (as MLPchan)</text>
<text text-anchor="start" x="902" y="-568.3" font-family="sans-serif" font-size="14.00">2015–</text>
</g>
<!-- tb&#45;&gt;ponychan -->
<g id="edge10" class="edge">
<title>tb&#45;&gt;ponychan</title>
<path fill="none" stroke="black" d="M688.78,-757.61C726.67,-740.91 770.31,-719.33 807,-695 836.58,-675.38 866.32,-648.54 888.28,-627.05"/>
<polygon fill="black" stroke="black" points="890.58,-629.69 895.22,-620.16 885.65,-624.72 890.58,-629.69"/>
</g>
<!-- wiz -->
<g id="node5" class="node">
<title>wiz</title>
<path fill="lightgrey" stroke="black" d="M12,-250.5C12,-250.5 206,-250.5 206,-250.5 212,-250.5 218,-256.5 218,-262.5 218,-262.5 218,-418.5 218,-418.5 218,-424.5 212,-430.5 206,-430.5 206,-430.5 12,-430.5 12,-430.5 6,-430.5 0,-424.5 0,-418.5 0,-418.5 0,-262.5 0,-262.5 0,-256.5 6,-250.5 12,-250.5"/>
<text text-anchor="start" x="20.5" y="-416.3" font-family="sans-serif" font-size="14.00">Proprietary Wizardchan fork</text>
<text text-anchor="start" x="81.5" y="-406.3" font-family="sans-serif" font-weight="bold" font-size="9.00">(@mrpacific)</text>
<text text-anchor="start" x="71.5" y="-393.3" font-family="sans-serif" font-size="14.00">2011–2012</text>
<polyline fill="none" stroke="black" points="0,-385.5 218,-385.5"/>
<text text-anchor="start" x="21.5" y="-371.3" font-family="sans-serif" font-size="14.00">Production Wizardchan fork</text>
<text text-anchor="start" x="80" y="-361.3" font-family="sans-serif" font-weight="bold" font-size="9.00">(@copypaste)</text>
<text text-anchor="start" x="71.5" y="-348.3" font-family="sans-serif" font-size="14.00">2012–2013</text>
<polyline fill="none" stroke="black" points="0,-340.5 218,-340.5"/>
<text text-anchor="start" x="8" y="-326.3" font-family="sans-serif" font-size="14.00">Proprietary Wizardchan fork №2</text>
<text text-anchor="start" x="77" y="-316.3" font-family="sans-serif" font-weight="bold" font-size="9.00">(@anachronos)</text>
<text text-anchor="start" x="67.5" y="-303.3" font-family="sans-serif" font-size="14.00">2013–≈2016</text>
<polyline fill="none" stroke="black" points="0,-295.5 218,-295.5"/>
<text text-anchor="start" x="32.5" y="-281.3" font-family="sans-serif" font-size="14.00">Proprietary wizchan fork</text>
<text text-anchor="start" x="67" y="-271.3" font-family="sans-serif" font-weight="bold" font-size="9.00">(too many to count)</text>
<text text-anchor="start" x="88" y="-258.3" font-family="sans-serif" font-size="14.00">2016–</text>
</g>
<!-- tb&#45;&gt;wiz -->
<g id="edge2" class="edge">
<title>tb&#45;&gt;wiz</title>
<path fill="none" stroke="black" d="M546.47,-749.75C466.17,-678.13 310,-534.22 207.59,-437.85"/>
<polygon fill="black" stroke="black" points="210.17,-435.47 200.49,-431.16 205.37,-440.56 210.17,-435.47"/>
</g>
<!-- vichan&#45;&gt;tb -->
<g id="edge7" class="edge">
<title>vichan&#45;&gt;tb</title>
<path fill="none" stroke="black" d="M598,-639.46C598,-669.15 598,-707.24 598,-738.11"/>
<polygon fill="black" stroke="black" points="594.5,-738.05 598,-748.05 601.5,-738.05 594.5,-738.05"/>
</g>
<!-- vichan&#45;&gt;wiz -->
<g id="edge5" class="edge">
<title>vichan&#45;&gt;wiz</title>
<path fill="none" stroke="black" d="M492.2,-554.67C416.73,-527.2 313.86,-485.28 226.73,-435.99"/>
<polygon fill="black" stroke="black" points="228.73,-433.1 218.31,-431.17 225.25,-439.18 228.73,-433.1"/>
</g>
<!-- leftypol -->
<g id="node6" class="node">
<title>leftypol</title>
<path fill="lightgrey" stroke="black" d="M610,-318C610,-318 692,-318 692,-318 698,-318 704,-324 704,-330 704,-330 704,-351 704,-351 704,-357 698,-363 692,-363 692,-363 610,-363 610,-363 604,-363 598,-357 598,-351 598,-351 598,-330 598,-330 598,-324 604,-318 610,-318"/>
<text text-anchor="start" x="615.5" y="-348.8" font-family="sans-serif" font-size="14.00">leftypol.org</text>
<text text-anchor="start" x="606" y="-338.8" font-family="sans-serif" font-weight="bold" font-size="9.00">(@discomrade </text>
<text text-anchor="start" x="670" y="-338.8" font-family="sans-serif" font-weight="bold" font-style="italic" font-size="9.00">et al.</text>
<text text-anchor="start" x="692" y="-338.8" font-family="sans-serif" font-weight="bold" font-size="9.00">)</text>
<text text-anchor="start" x="626" y="-325.8" font-family="sans-serif" font-size="14.00">≈2016–</text>
</g>
<!-- vichan&#45;&gt;leftypol -->
<g id="edge8" class="edge">
<title>vichan&#45;&gt;leftypol</title>
<path fill="none" stroke="black" d="M602.86,-540.69C611.5,-491.44 627.81,-416.41 639.33,-373.89"/>
<polygon fill="black" stroke="black" points="642.7,-374.83 642.03,-364.26 635.96,-372.94 642.7,-374.83"/>
</g>
<!-- inf -->
<g id="node7" class="node">
<title>inf</title>
<path fill="lightgrey" stroke="black" d="M734.5,-286.5C734.5,-286.5 883.5,-286.5 883.5,-286.5 889.5,-286.5 895.5,-292.5 895.5,-298.5 895.5,-298.5 895.5,-382.5 895.5,-382.5 895.5,-388.5 889.5,-394.5 883.5,-394.5 883.5,-394.5 734.5,-394.5 734.5,-394.5 728.5,-394.5 722.5,-388.5 722.5,-382.5 722.5,-382.5 722.5,-298.5 722.5,-298.5 722.5,-292.5 728.5,-286.5 734.5,-286.5"/>
<text text-anchor="start" x="786.5" y="-380.3" font-family="sans-serif" font-size="14.00">infinity</text>
<text text-anchor="start" x="778" y="-370.3" font-family="sans-serif" font-weight="bold" font-size="9.00">(@copypaste /</text>
<text text-anchor="start" x="789.5" y="-361.3" font-family="sans-serif" font-weight="bold" font-size="9.00">★コピペ)</text>
<text text-anchor="start" x="771.5" y="-348.3" font-family="sans-serif" font-size="14.00">2013–2017</text>
<polyline fill="none" stroke="black" points="722.5,-340.5 895.5,-340.5"/>
<text text-anchor="start" x="730.5" y="-326.3" font-family="sans-serif" font-size="14.00">Production 8chan.co fork</text>
<text text-anchor="start" x="778" y="-316.3" font-family="sans-serif" font-weight="bold" font-size="9.00">(@copypaste /</text>
<text text-anchor="start" x="789.5" y="-307.3" font-family="sans-serif" font-weight="bold" font-size="9.00">★コピペ)</text>
<text text-anchor="start" x="771.5" y="-294.3" font-family="sans-serif" font-size="14.00">2013–2016</text>
</g>
<!-- vichan&#45;&gt;inf -->
<g id="edge9" class="edge">
<title>vichan&#45;&gt;inf</title>
<path fill="none" stroke="black" d="M628.22,-540.69C658.78,-501.26 706.19,-445.3 744.97,-402.73"/>
<polygon fill="black" stroke="black" points="747.4,-405.25 751.58,-395.52 742.24,-400.52 747.4,-405.25"/>
</g>
<!-- vichan&#45;&gt;inf -->
<!-- lc -->
<g id="node8" class="node">
<title>lc</title>
<path fill="lightgrey" stroke="black" d="M925.5,-318C925.5,-318 996.5,-318 996.5,-318 1002.5,-318 1008.5,-324 1008.5,-330 1008.5,-330 1008.5,-351 1008.5,-351 1008.5,-357 1002.5,-363 996.5,-363 996.5,-363 925.5,-363 925.5,-363 919.5,-363 913.5,-357 913.5,-351 913.5,-351 913.5,-330 913.5,-330 913.5,-324 919.5,-318 925.5,-318"/>
<text text-anchor="start" x="933.5" y="-348.8" font-family="sans-serif" font-size="14.00">lainchan</text>
<text text-anchor="start" x="921.5" y="-338.8" font-family="sans-serif" font-weight="bold" font-size="9.00">(@appleman1234)</text>
<text text-anchor="start" x="940" y="-325.8" font-family="sans-serif" font-size="14.00">2016–</text>
</g>
<!-- vichan&#45;&gt;lc -->
<g id="edge11" class="edge">
<title>vichan&#45;&gt;lc</title>
<path fill="none" stroke="black" d="M703.67,-551.25C767.26,-524.74 846.87,-484.46 905,-431 922.68,-414.75 936.93,-391.69 946.63,-373.05"/>
<polygon fill="black" stroke="black" points="949.66,-374.81 951,-364.3 943.4,-371.68 949.66,-374.81"/>
</g>
<!-- npf -->
<g id="node9" class="node">
<title>npf</title>
<path fill="lightgrey" stroke="black" d="M248,-318C248,-318 322,-318 322,-318 328,-318 334,-324 334,-330 334,-330 334,-351 334,-351 334,-357 328,-363 322,-363 322,-363 248,-363 248,-363 242,-363 236,-357 236,-351 236,-351 236,-330 236,-330 236,-324 242,-318 248,-318"/>
<text text-anchor="start" x="256.5" y="-348.8" font-family="sans-serif" font-size="14.00">NPFchan</text>
<text text-anchor="start" x="244" y="-338.8" font-family="sans-serif" font-weight="bold" font-size="9.00">(@fallenPineapple)</text>
<text text-anchor="start" x="247.5" y="-325.8" font-family="sans-serif" font-size="14.00">2017–2019</text>
</g>
<!-- vichan&#45;&gt;npf -->
<g id="edge12" class="edge">
<title>vichan&#45;&gt;npf</title>
<path fill="none" stroke="black" d="M498.22,-540.66C447.93,-513.13 388.2,-475.29 343,-431 325.78,-414.13 311.08,-391.28 300.78,-372.88"/>
<polygon fill="black" stroke="black" points="303.95,-371.38 296.11,-364.25 297.79,-374.71 303.95,-371.38"/>
</g>
<!-- kuz -->
<g id="node12" class="node">
<title>kuz</title>
<path fill="lightgrey" stroke="black" d="M364,-311C364,-311 530,-311 530,-311 536,-311 542,-317 542,-323 542,-323 542,-358 542,-358 542,-364 536,-370 530,-370 530,-370 364,-370 364,-370 358,-370 352,-364 352,-358 352,-358 352,-323 352,-323 352,-317 358,-311 364,-311"/>
<text text-anchor="start" x="360" y="-355.8" font-family="sans-serif" font-size="14.00">Proprietary KolymaNET fork</text>
<text text-anchor="start" x="432" y="-345.8" font-family="sans-serif" font-weight="bold" font-size="9.00">(@kuz)</text>
<text text-anchor="start" x="389.5" y="-332.8" font-family="sans-serif" font-size="14.00">d/b/a soyjak.party</text>
<text text-anchor="start" x="422" y="-318.8" font-family="sans-serif" font-size="14.00">≈2020–</text>
</g>
<!-- vichan&#45;&gt;kuz -->
<g id="edge20" class="edge">
<title>vichan&#45;&gt;kuz</title>
<path fill="none" stroke="black" d="M563.05,-540.69C532.45,-493.55 489.43,-422.78 465.16,-379.51"/>
<polygon fill="black" stroke="black" points="468.34,-378.03 460.43,-370.98 462.22,-381.43 468.34,-378.03"/>
</g>
<!-- wiz&#45;&gt;tb -->
<g id="edge3" class="edge">
<title>wiz&#45;&gt;tb</title>
<path fill="none" stroke="black" d="M210.37,-430.12C313.01,-523.18 467.51,-666.3 546.95,-742.18"/>
<polygon fill="black" stroke="black" points="544.13,-744.32 553.77,-748.7 548.97,-739.26 544.13,-744.32"/>
</g>
<!-- wiz&#45;&gt;vichan -->
<g id="edge4" class="edge">
<title>wiz&#45;&gt;vichan</title>
<path fill="none" stroke="black" d="M217.91,-419.86C223.94,-423.77 230,-427.52 236,-431 314.64,-476.63 408.96,-516.62 481.65,-544.96"/>
<polygon fill="black" stroke="black" points="480.21,-548.15 490.8,-548.5 482.74,-541.63 480.21,-548.15"/>
</g>
<!-- leftypol&#45;&gt;vichan -->
<g id="edge13" class="edge">
<title>leftypol&#45;&gt;vichan</title>
<path fill="none" stroke="black" stroke-dasharray="5,2" d="M650.43,-362.8C645.46,-399.47 629.75,-475.76 616.59,-529.57"/>
<polygon fill="black" stroke="black" points="613.21,-528.67 614.19,-539.22 620,-530.36 613.21,-528.67"/>
</g>
<!-- inf&#45;&gt;tb -->
<g id="edge14" class="edge">
<title>inf&#45;&gt;tb</title>
<path fill="none" stroke="black" stroke-dasharray="1,5" d="M797.65,-394.27C783.21,-455.59 754.99,-558.76 713,-640 694.29,-676.19 667.2,-712.85 644.01,-741.26"/>
<polygon fill="black" stroke="black" points="641.59,-738.7 637.92,-748.64 646.99,-743.16 641.59,-738.7"/>
</g>
<!-- inf&#45;&gt;vichan -->
<g id="edge15" class="edge">
<title>inf&#45;&gt;vichan</title>
<path fill="none" stroke="black" d="M763.9,-394.4C729.39,-434.88 681.87,-490.62 646.53,-532.07"/>
<polygon fill="black" stroke="black" points="643.99,-529.66 640.17,-539.54 649.32,-534.2 643.99,-529.66"/>
</g>
<!-- infpl -->
<g id="node10" class="node">
<title>infpl</title>
<path fill="lightgrey" stroke="black" d="M743.5,-48C743.5,-48 874.5,-48 874.5,-48 880.5,-48 886.5,-54 886.5,-60 886.5,-60 886.5,-81 886.5,-81 886.5,-87 880.5,-93 874.5,-93 874.5,-93 743.5,-93 743.5,-93 737.5,-93 731.5,-87 731.5,-81 731.5,-81 731.5,-60 731.5,-60 731.5,-54 737.5,-48 743.5,-48"/>
<text text-anchor="start" x="739.5" y="-78.8" font-family="sans-serif" font-size="14.00">Production 8ch.pl fork</text>
<text text-anchor="start" x="789.5" y="-68.8" font-family="sans-serif" font-weight="bold" font-size="9.00">(@czaks)</text>
<text text-anchor="start" x="771.5" y="-55.8" font-family="sans-serif" font-size="14.00">2014–2016</text>
</g>
<!-- inf&#45;&gt;infpl -->
<g id="edge16" class="edge">
<title>inf&#45;&gt;infpl</title>
<path fill="none" stroke="black" d="M803.5,-286.55C801.57,-232.22 801.88,-149.41 804.4,-104.04"/>
<polygon fill="black" stroke="black" points="807.88,-104.53 805.04,-94.33 800.89,-104.08 807.88,-104.53"/>
</g>
<!-- e8ch -->
<g id="node11" class="node">
<title>e8ch</title>
<path fill="lightgrey" stroke="black" d="M538.5,-0.5C538.5,-0.5 701.5,-0.5 701.5,-0.5 707.5,-0.5 713.5,-6.5 713.5,-12.5 713.5,-12.5 713.5,-128.5 713.5,-128.5 713.5,-134.5 707.5,-140.5 701.5,-140.5 701.5,-140.5 538.5,-140.5 538.5,-140.5 532.5,-140.5 526.5,-134.5 526.5,-128.5 526.5,-128.5 526.5,-12.5 526.5,-12.5 526.5,-6.5 532.5,-0.5 538.5,-0.5"/>
<text text-anchor="start" x="595.5" y="-126.3" font-family="sans-serif" font-size="14.00">OpenIB</text>
<text text-anchor="start" x="595" y="-116.3" font-family="sans-serif" font-weight="bold" font-size="9.00">(@kormiku)</text>
<text text-anchor="start" x="578.5" y="-103.3" font-family="sans-serif" font-size="14.00">≈2017–2019</text>
<polyline fill="none" stroke="black" points="526.5,-95.5 713.5,-95.5"/>
<text text-anchor="start" x="534.5" y="-81.3" font-family="sans-serif" font-size="14.00">Proprietary 8chan software</text>
<text text-anchor="start" x="595" y="-71.3" font-family="sans-serif" font-weight="bold" font-size="9.00">(@kormiku)</text>
<text text-anchor="start" x="578.5" y="-58.3" font-family="sans-serif" font-size="14.00">≈2017–2019</text>
<polyline fill="none" stroke="black" points="526.5,-50.5 713.5,-50.5"/>
<text text-anchor="start" x="538" y="-36.3" font-family="sans-serif" font-size="14.00">Proprietary 8kun software</text>
<text text-anchor="start" x="548" y="-22.3" font-family="sans-serif" font-size="14.00">≈2019–≈2022 </text>
<text text-anchor="start" x="642" y="-22.3" font-family="sans-serif" font-weight="bold" font-size="9.00">(@kormiku)</text>
<text text-anchor="start" x="568" y="-8.3" font-family="sans-serif" font-size="14.00">2022– </text>
<text text-anchor="start" x="613" y="-8.3" font-family="sans-serif" font-weight="bold" font-size="9.00">(Jim Watkins)</text>
</g>
<!-- inf&#45;&gt;e8ch -->
<g id="edge19" class="edge">
<title>inf&#45;&gt;e8ch</title>
<path fill="none" stroke="black" d="M771.66,-286.55C744.04,-247.39 705.99,-193.43 674.91,-149.36"/>
<polygon fill="black" stroke="black" points="677.88,-147.5 669.26,-141.35 672.16,-151.54 677.88,-147.5"/>
</g>
<!-- infpl&#45;&gt;vichan -->
<g id="edge17" class="edge">
<title>infpl&#45;&gt;vichan</title>
<path fill="none" stroke="black" stroke-dasharray="1,5" d="M782.51,-92.93C724.09,-140.21 589.33,-249.3 589,-250 546.1,-340.06 563.93,-459.41 580.89,-529.82"/>
<polygon fill="black" stroke="black" points="577.42,-530.36 583.23,-539.22 584.21,-528.67 577.42,-530.36"/>
</g>
<!-- infpl&#45;&gt;inf -->
<g id="edge18" class="edge">
<title>infpl&#45;&gt;inf</title>
<path fill="none" stroke="black" d="M812.87,-92.82C815.85,-131.78 816.52,-215.94 814.87,-275.08"/>
<polygon fill="black" stroke="black" points="811.37,-274.93 814.55,-285.04 818.37,-275.15 811.37,-274.93"/>
</g>
<!-- kuz&#45;&gt;vichan -->
<g id="edge21" class="edge">
<title>kuz&#45;&gt;vichan</title>
<path fill="none" stroke="black" d="M468.66,-369.66C494.94,-408.68 538.97,-480.1 568.34,-530.84"/>
<polygon fill="black" stroke="black" points="565.23,-532.46 573.25,-539.38 571.3,-528.97 565.23,-532.46"/>
</g>
</g>
</svg>
